<svg width="1400" height="900" viewBox="0 0 1400 900" fill="none" xmlns="http://www.w3.org/2000/svg">
  <defs>
    <linearGradient id="bgGrad" x1="0%" y1="0%" x2="100%" y2="100%">
      <stop offset="0%" style="stop-color:#F9FAFB"/>
      <stop offset="100%" style="stop-color:#F3F4F6"/>
    </linearGradient>
    <filter id="windowShadow" x="-50%" y="-50%" width="200%" height="200%">
      <feGaussianBlur in="SourceAlpha" stdDeviation="20"/>
      <feOffset dx="0" dy="10" result="offsetblur"/>
      <feComponentTransfer>
        <feFuncA type="linear" slope="0.2"/>
      </feComponentTransfer>
      <feMerge>
        <feMergeNode/>
        <feMergeNode in="SourceGraphic"/>
      </feMerge>
    </filter>
    <linearGradient id="itemGrad" x1="0%" y1="0%" x2="100%" y2="0%">
      <stop offset="0%" style="stop-color:rgba(99,102,241,0.05)"/>
      <stop offset="100%" style="stop-color:rgba(139,92,246,0.05)"/>
    </linearGradient>
  </defs>

  <!-- Background -->
  <rect width="1400" height="900" fill="url(#bgGrad)"/>

  <!-- Desktop wallpaper pattern -->
  <pattern id="wallpaper" width="100" height="100" patternUnits="userSpaceOnUse">
    <circle cx="50" cy="50" r="1" fill="#E5E7EB" opacity="0.3"/>
  </pattern>
  <rect width="1400" height="900" fill="url(#wallpaper)"/>

  <!-- Menu bar -->
  <rect width="1400" height="28" fill="rgba(255,255,255,0.8)" style="backdrop-filter: blur(20px)"/>
  <g transform="translate(20, 6)">
    <!-- Apple logo -->
    <path d="M10 8 C10 6 12 4 14 6 C14 4 16 4 16 6 C18 6 18 8 16 10 L14 14 L12 10 C10 8 10 8 10 8" fill="#000" opacity="0.8"/>
    <!-- App name -->
    <text x="30" y="12" font-family="-apple-system, sans-serif" font-size="13" font-weight="600" fill="#000">ClipboardManager</text>
  </g>
  <!-- Menu bar right side -->
  <g transform="translate(1300, 6)">
    <text x="0" y="12" font-family="-apple-system, sans-serif" font-size="12" fill="#000">⌘⇧V</text>
  </g>

  <!-- App Window -->
  <g transform="translate(200, 100)">
    <!-- Window shadow -->
    <rect x="-10" y="-10" width="1020" height="720" rx="12" fill="#000" opacity="0.1" filter="url(#windowShadow)"/>

    <!-- Window background -->
    <rect width="1000" height="700" rx="12" fill="#FFFFFF"/>

    <!-- Window header -->
    <rect width="1000" height="40" rx="12" fill="#F5F5F7"/>
    <rect y="40" width="1000" height="1" fill="#E5E7EB"/>

    <!-- Window controls -->
    <g transform="translate(12, 14)">
      <circle cx="6" cy="6" r="6" fill="#FF5F57"/>
      <circle cx="26" cy="6" r="6" fill="#FFBD2E"/>
      <circle cx="46" cy="6" r="6" fill="#28CA42"/>
    </g>

    <!-- Window title -->
    <text x="500" y="26" font-family="-apple-system, sans-serif" font-size="13" font-weight="500" fill="#6B7280" text-anchor="middle">
      ⌘⇧V Clipboard History
    </text>

    <!-- Search bar -->
    <g transform="translate(30, 60)">
      <rect width="940" height="50" rx="8" fill="#F9FAFB" stroke="#E5E7EB" stroke-width="1.5"/>
      <!-- Search icon -->
      <g transform="translate(18, 16)">
        <circle cx="8" cy="8" r="7" stroke="#9CA3AF" stroke-width="2" fill="none"/>
        <line x1="13" y1="13" x2="18" y2="18" stroke="#9CA3AF" stroke-width="2" stroke-linecap="round"/>
      </g>
      <!-- Search text -->
      <text x="50" y="32" font-family="-apple-system, sans-serif" font-size="15" fill="#6B7280">
        machine learning tutorials
      </text>
      <!-- Mode badge -->
      <g transform="translate(820, 12)">
        <rect width="100" height="26" rx="13" fill="url(#itemGrad)" stroke="#6366F1" stroke-width="1"/>
        <text x="50" y="18" font-family="-apple-system, sans-serif" font-size="11" font-weight="600" fill="#6366F1" text-anchor="middle">
          Hybrid AI
        </text>
      </g>
    </g>

    <!-- Category filters -->
    <g transform="translate(30, 130)">
      <rect width="60" height="28" rx="14" fill="#6366F1"/>
      <text x="30" y="19" font-family="-apple-system, sans-serif" font-size="12" font-weight="600" fill="#FFF" text-anchor="middle">All</text>

      <g transform="translate(75, 0)">
        <rect width="70" height="28" rx="14" fill="#F3F4F6"/>
        <text x="35" y="19" font-family="-apple-system, sans-serif" font-size="12" font-weight="500" fill="#6B7280" text-anchor="middle">💻 Code</text>
      </g>

      <g transform="translate(160, 0)">
        <rect width="70" height="28" rx="14" fill="#F3F4F6"/>
        <text x="35" y="19" font-family="-apple-system, sans-serif" font-size="12" font-weight="500" fill="#6B7280" text-anchor="middle">🔗 Links</text>
      </g>

      <g transform="translate(245, 0)">
        <rect width="75" height="28" rx="14" fill="#F3F4F6"/>
        <text x="37" y="19" font-family="-apple-system, sans-serif" font-size="12" font-weight="500" fill="#6B7280" text-anchor="middle">📝 Text</text>
      </g>
    </g>

    <!-- Results count -->
    <text x="30" y="190" font-family="-apple-system, sans-serif" font-size="13" font-weight="500" fill="#6B7280">
      12 items found • Sorted by relevance
    </text>

    <!-- Clipboard items -->
    <!-- Item 1 - Featured/Highlighted -->
    <g transform="translate(30, 210)">
      <rect width="940" height="90" rx="8" fill="url(#itemGrad)" stroke="#6366F1" stroke-width="2"/>

      <!-- Item header -->
      <g transform="translate(16, 16)">
        <rect width="50" height="20" rx="4" fill="#EEF2FF"/>
        <text x="25" y="14" font-family="-apple-system, sans-serif" font-size="11" font-weight="600" fill="#6366F1" text-anchor="middle">Code</text>

        <circle cx="80" cy="10" r="4" fill="#10B981"/>

        <text x="900" y="14" font-family="-apple-system, sans-serif" font-size="11" fill="#9CA3AF" text-anchor="end">2 mins ago</text>
      </g>

      <!-- Item content -->
      <text x="16" y="50" font-family="Monaco, monospace" font-size="14" fill="#111827">
        func trainNeuralNetwork(data: [Double]) {
      </text>

      <!-- Item footer -->
      <g transform="translate(16, 65)">
        <rect width="100" height="18" rx="4" fill="#DBEAFE"/>
        <text x="50" y="13" font-family="-apple-system, sans-serif" font-size="10" font-weight="600" fill="#1E40AF" text-anchor="middle">ML Project</text>

        <text x="120" y="13" font-family="-apple-system, sans-serif" font-size="10" fill="#6B7280">3 related items</text>

        <text x="220" y="13" font-family="-apple-system, sans-serif" font-size="10" fill="#6B7280">From: Xcode</text>
      </g>
    </g>

    <!-- Item 2 -->
    <g transform="translate(30, 315)">
      <rect width="940" height="90" rx="8" fill="#FFFFFF" stroke="#E5E7EB" stroke-width="1.5"/>

      <!-- Item header -->
      <g transform="translate(16, 16)">
        <rect width="50" height="20" rx="4" fill="#F3F4F6"/>
        <text x="25" y="14" font-family="-apple-system, sans-serif" font-size="11" font-weight="600" fill="#6B7280" text-anchor="middle">Text</text>

        <circle cx="80" cy="10" r="4" fill="#F59E0B"/>

        <text x="900" y="14" font-family="-apple-system, sans-serif" font-size="11" fill="#9CA3AF" text-anchor="end">8 mins ago</text>
      </g>

      <!-- Item content -->
      <text x="16" y="50" font-family="-apple-system, sans-serif" font-size="14" fill="#111827">
        Implementing deep learning models with TensorFlow and PyTorch
      </text>

      <!-- Item footer -->
      <g transform="translate(16, 65)">
        <rect width="100" height="18" rx="4" fill="#DBEAFE"/>
        <text x="50" y="13" font-family="-apple-system, sans-serif" font-size="10" font-weight="600" fill="#1E40AF" text-anchor="middle">ML Project</text>

        <text x="120" y="13" font-family="-apple-system, sans-serif" font-size="10" fill="#6B7280">2 related items</text>

        <text x="220" y="13" font-family="-apple-system, sans-serif" font-size="10" fill="#6B7280">From: Safari</text>
      </g>
    </g>

    <!-- Item 3 -->
    <g transform="translate(30, 420)">
      <rect width="940" height="90" rx="8" fill="#FFFFFF" stroke="#E5E7EB" stroke-width="1.5"/>

      <!-- Item header -->
      <g transform="translate(16, 16)">
        <rect width="50" height="20" rx="4" fill="#F3F4F6"/>
        <text x="25" y="14" font-family="-apple-system, sans-serif" font-size="11" font-weight="600" fill="#6B7280" text-anchor="middle">Link</text>

        <circle cx="80" cy="10" r="4" fill="#9CA3AF"/>

        <text x="900" y="14" font-family="-apple-system, sans-serif" font-size="11" fill="#9CA3AF" text-anchor="end">15 mins ago</text>
      </g>

      <!-- Item content -->
      <text x="16" y="50" font-family="Monaco, monospace" font-size="13" fill="#6366F1" text-decoration="underline">
        https://pytorch.org/tutorials/beginner/deep_learning_60min_blitz.html
      </text>

      <!-- Item footer -->
      <g transform="translate(16, 65)">
        <rect width="100" height="18" rx="4" fill="#DBEAFE"/>
        <text x="50" y="13" font-family="-apple-system, sans-serif" font-size="10" font-weight="600" fill="#1E40AF" text-anchor="middle">ML Project</text>

        <text x="120" y="13" font-family="-apple-system, sans-serif" font-size="10" fill="#6B7280">PyTorch Documentation</text>

        <text x="270" y="13" font-family="-apple-system, sans-serif" font-size="10" fill="#6B7280">From: Safari</text>
      </g>
    </g>

    <!-- Item 4 (partially visible) -->
    <g transform="translate(30, 525)">
      <rect width="940" height="90" rx="8" fill="#FFFFFF" stroke="#E5E7EB" stroke-width="1.5"/>

      <!-- Item header -->
      <g transform="translate(16, 16)">
        <rect width="50" height="20" rx="4" fill="#F3F4F6"/>
        <text x="25" y="14" font-family="-apple-system, sans-serif" font-size="11" font-weight="600" fill="#6B7280" text-anchor="middle">Code</text>

        <circle cx="80" cy="10" r="4" fill="#9CA3AF"/>

        <text x="900" y="14" font-family="-apple-system, sans-serif" font-size="11" fill="#9CA3AF" text-anchor="end">25 mins ago</text>
      </g>

      <!-- Item content -->
      <text x="16" y="50" font-family="Monaco, monospace" font-size="14" fill="#111827">
        import tensorflow as tf
      </text>
    </g>

    <!-- Scrollbar -->
    <rect x="980" y="210" width="4" height="400" rx="2" fill="#F3F4F6"/>
    <rect x="980" y="210" width="4" height="120" rx="2" fill="#D1D5DB"/>
  </g>

  <!-- Floating annotation 1 -->
  <g transform="translate(80, 350)">
    <circle cx="0" cy="0" r="20" fill="#10B981" opacity="0.9"/>
    <text x="0" y="6" font-family="-apple-system, sans-serif" font-size="16" font-weight="700" fill="#FFF" text-anchor="middle">✓</text>
    <rect x="30" y="-20" width="130" height="40" rx="8" fill="#10B981"/>
    <text x="95" y="5" font-family="-apple-system, sans-serif" font-size="13" font-weight="600" fill="#FFF" text-anchor="middle">Semantic Match</text>
  </g>

  <!-- Floating annotation 2 -->
  <g transform="translate(1220, 420)">
    <circle cx="0" cy="0" r="20" fill="#6366F1" opacity="0.9"/>
    <text x="0" y="6" font-family="-apple-system, sans-serif" font-size="16" font-weight="700" fill="#FFF" text-anchor="middle">AI</text>
    <rect x="-140" y="-20" width="130" height="40" rx="8" fill="#6366F1"/>
    <text x="-75" y="5" font-family="-apple-system, sans-serif" font-size="13" font-weight="600" fill="#FFF" text-anchor="middle">Auto-Grouped</text>
  </g>
</svg>
